<?xml version="1.0" encoding="utf-8"?>
<!-- Generator: Adobe Illustrator 15.1.0, SVG Export Plug-In . SVG Version: 6.00 Build 0)  -->
<!DOCTYPE svg PUBLIC "-//W3C//DTD SVG 1.1//EN" "http://www.w3.org/Graphics/SVG/1.1/DTD/svg11.dtd">
<svg version="1.1" id="Layer_1" xmlns="http://www.w3.org/2000/svg" xmlns:xlink="http://www.w3.org/1999/xlink" x="0px" y="0px"
	 width="105.944px" height="127.39px" viewBox="0 0 105.944 127.39" enable-background="new 0 0 105.944 127.39"
	 xml:space="preserve">
<ellipse transform="matrix(1 0.0038 -0.0038 1 0.4503 -0.2138)" opacity="0.1" cx="56.35" cy="118.103" rx="37.427" ry="5.12"/>
<g>
	<path fill="#010101" d="M40.346,34.756c4.153-1.417,7.192,8.035,3.859,9.265C40.382,45.431,36.224,36.154,40.346,34.756z"/>
	<path fill="#010101" d="M74.936,26.65c4.861-1.601,7.49,10.416,1.971,9.828C74.332,36.204,71.566,27.756,74.936,26.65z"/>
	<path fill="#010101" d="M42.792,84.995c0.305-3.743-0.772-13.35,4.159-11.546c8.274,3.009,20.022,2.075,29.418,0.027
		c1.134,4.955,1.078,12.602,1.045,19.352c-0.012,1.994,0.394,7.652-0.683,9.511c-1.021,1.749-4.958,1.74-8.02,2.051
		c-9.011,0.899-20.188,2.235-27.651,1.725C40.398,98.448,42.166,92.594,42.792,84.995z M26.914,61.13
		c-0.882,0.214-10.846-3.791-12.414-4.296c-3-0.833-7,2-3.167,5c0.833,1.667,15.962,5.002,18.338,6.079
		c2.216,1.006,7.806,2.833,8.381,4.631c0.766,2.384-1.104,7.779-1.549,11.172c-1.043,8.01-1.581,14.652-2.346,23.002
		c-0.278,2.96-1.428,10.07,0.836,11.045c4.652,1.992,3.99-5.434,5.625-6.542c1.864-1.276,4.237-0.336,6.245-0.435
		c4.104-0.213,9.874-0.938,15.168-1.646c4.193-0.563,11.342-0.893,15.061-0.121c2.398,0.496-1.521,8.737,1.488,9.854
		c4.962,1.842,4.529-4.488,4.547-8.793c0.02-5.922-1.076-13.668-0.801-19.267c0.169-3.504-1.126-7.905,0.84-10.64
		c2.336,1.192,2.447,1.869,4.204,5.162c0.729,1.365,2.39,6.358,4.026,6.578c1.636,0.21,2.968-2.228,3.098-3.141
		c0.402-2.881-1.558-5.142-4.893-9.293c-1.922-2.389-3.52-5.834-5.211-8.93c-0.818-1.495,2.318-4.467,3.69-6.023
		c6.843-7.811,11.069-22.903,6.142-36.836C89.238,13.605,75.25,2.943,59.408,3C50.84,3.03,44.255,5.079,38.161,9.22
		c-9.286,6.298-15.321,15.605-16.295,29.309C21.243,47.285,23.444,53.914,26.914,61.13z M27.921,35.276
		c0.306-3.742,8-27.147,30.507-27.95c11.096-0.396,27.508,8.933,29.778,18.678c3.685,12.876,3.071,22.53-2.315,30.93
		c-3.677,5.734-3.834,7.427-13.055,11.294c-1.906,0.8-12.138,2.36-15.215,2.266c-11.375-0.348-19.593-3.996-24.81-9.249
		C27.193,54.089,27.295,42.876,27.921,35.276z"/>
</g>
</svg>
