<?xml version="1.0" encoding="utf-8"?>
<!-- Generator: Adobe Illustrator 15.1.0, SVG Export Plug-In . SVG Version: 6.00 Build 0)  -->
<!DOCTYPE svg PUBLIC "-//W3C//DTD SVG 1.1//EN" "http://www.w3.org/Graphics/SVG/1.1/DTD/svg11.dtd">
<svg version="1.1" id="Layer_1" xmlns="http://www.w3.org/2000/svg" xmlns:xlink="http://www.w3.org/1999/xlink" x="0px" y="0px"
	 width="24px" height="37.365px" viewBox="0 0 24 37.365" enable-background="new 0 0 24 37.365" xml:space="preserve">
<g>
	<path fill="#010101" d="M17.712,35.336c-0.968,0-1.868-0.348-2.601-1.005c-1.745-1.562-5.55-13.203-6.897-17.455
		c-0.861-0.37-2.639-1.33-4.469-3.496C0.947,10.068,1.378,5.24,2.384,3.688C2.918,2.864,3.613,2.741,3.98,2.741
		c0.893,0,1.539,0.669,1.659,0.803l0.09,0.1l3.07,6.123L12.248,8.5L10.84,3.478c-0.131-0.318-0.427-1.214,0.039-1.941
		c0.174-0.272,0.598-0.73,1.479-0.73c0.304,0,0.639,0.052,1.026,0.16C15.08,1.44,16.47,2.859,17.3,4.961
		c1.024,2.595,0.955,5.643-0.151,7.709c0.234,3.885,1.876,8.83,3.201,12.823c1.29,3.886,1.896,5.799,1.583,6.832
		C21.417,34.014,19.563,35.336,17.712,35.336z M17.702,30.281c-0.323,0-0.595,0.231-0.647,0.551
		c-0.029,0.174,0.012,0.347,0.114,0.489c0.102,0.143,0.254,0.237,0.427,0.265c0.034,0.006,0.07,0.009,0.105,0.009
		c0.323,0,0.595-0.232,0.647-0.551c0.059-0.357-0.184-0.695-0.542-0.754C17.774,30.284,17.738,30.281,17.702,30.281z"/>
	<path fill="#FFFFFF" d="M12.357,1.807c0.199,0,0.447,0.037,0.757,0.124c3.574,0.997,4.985,7.273,3.02,10.499
		c0.305,7.107,5.39,17.795,4.84,19.605c-0.378,1.241-1.801,2.302-3.263,2.302c-0.668,0-1.345-0.222-1.933-0.75
		c-1.75-1.567-6.757-17.473-6.757-17.473s-2.18-0.617-4.513-3.379C1.9,9.646,2.516,5.323,3.223,4.231
		c0.239-0.368,0.507-0.49,0.757-0.49c0.492,0,0.915,0.471,0.915,0.471l3.41,6.801L13.46,9.12l-1.675-5.976
		C11.785,3.144,11.167,1.807,12.357,1.807 M17.702,32.595c0.797,0,1.5-0.576,1.634-1.389c0.148-0.902-0.463-1.754-1.365-1.903
		c-0.09-0.015-0.18-0.022-0.269-0.022c-0.798,0-1.501,0.576-1.634,1.39c-0.149,0.902,0.462,1.753,1.365,1.902
		C17.523,32.588,17.613,32.595,17.702,32.595 M12.357-0.193c-0.991,0-1.837,0.434-2.322,1.191C9.35,2.071,9.68,3.265,9.892,3.803
		l1.143,4.077L9.292,8.52L6.683,3.316l-0.121-0.24l-0.18-0.2C6.144,2.61,5.264,1.741,3.98,1.741c-0.97,0-1.857,0.511-2.435,1.401
		c-1.176,1.814-1.718,7.15,1.435,10.883c1.701,2.013,3.364,3.062,4.414,3.576c1.976,6.214,5.259,15.872,7.05,17.475
		c0.918,0.823,2.048,1.259,3.267,1.259c2.305,0,4.53-1.599,5.176-3.719c0.405-1.332-0.16-3.133-1.589-7.44
		c-1.276-3.845-2.851-8.587-3.134-12.303c1.106-2.304,1.148-5.535,0.065-8.281c-0.947-2.4-2.573-4.031-4.578-4.59
		C13.177-0.128,12.753-0.193,12.357-0.193L12.357-0.193z"/>
</g>
</svg>
